<svg width="341" height="196" viewBox="0 0 341 196" fill="none" xmlns="http://www.w3.org/2000/svg">
<path d="M137.403 161.747C139.178 161.54 140.96 161.864 142.73 161.807C145.677 161.712 148.654 161.16 151.623 161.132C153.746 161.112 156.065 161.517 158.131 161.462C159.519 161.425 160.915 160.607 162.267 161.378C163.362 162.003 163.652 163.143 163.283 164.495C163.237 164.661 161.898 167.218 161.746 167.456C161.661 167.588 160.442 168.803 160.346 168.85C159.803 169.119 158.919 169.009 158.302 169.04C152.879 169.317 147.341 170.282 141.848 170.485C139.826 170.56 137.627 170.24 135.521 170.432C134.742 170.504 133.852 171.005 133.071 170.844C132.937 170.817 131.987 170.18 131.906 170.061C131.537 169.527 132.081 168.978 132.024 168.931C131.574 168.857 131.164 169.139 130.725 169.141C129.928 169.143 129.547 168.601 128.924 168.385C127.44 167.87 125.889 167.754 124.645 166.45C124.53 164.694 123.786 163.022 125.53 162.109C123.961 159.568 126.307 159.4 127.265 157.799C127.899 156.74 128.245 155.185 128.834 154.013C130.016 151.66 131.939 149.643 133.184 147.248C133.764 146.132 134.136 144.861 134.697 143.745C136.364 140.436 138.668 137.368 141.005 134.65C144.111 131.039 147.57 127.79 151.829 126.108C152.12 125.606 150.678 124.543 150.352 124.346C148.153 123.018 142.386 121.322 139.931 121.26C137.533 121.198 134.189 122.676 131.943 122.321C130.388 122.076 131.138 120.517 130.652 120.42C129.064 121.134 127.387 121.282 126.797 119.067C126.681 118.631 126.729 118.152 126.628 117.821C126.269 116.654 125.313 115.622 126.081 114.221C126.265 113.886 126.613 113.755 126.689 113.509C126.886 112.871 126.685 111.742 126.987 111.084C127.528 109.898 131.014 109.381 132.154 109.251C132.337 106.54 133.858 106.767 135.626 107.57C138.268 108.772 140.953 110.654 143.586 111.98C148.339 114.375 153.195 115.975 158.145 117.72C159.363 118.15 161.473 118.282 162.173 119.597C163.25 121.622 160.14 123.55 159.293 124.891C158.444 126.234 158.549 126.676 158.322 128.129C158.144 129.278 156.65 130.143 156.052 131.149C155.556 131.978 155.24 133.143 154.766 134.041C153.483 136.476 151.083 138.958 149.339 141.003C145.212 145.843 141.951 148.633 139.43 155.101C138.94 156.362 137.694 159.665 137.463 160.86C137.404 161.162 137.368 161.436 137.408 161.745L137.403 161.747Z" fill="black"/>
<path d="M91.8506 166.002C88.6611 166.545 88.0976 163.086 86.8435 160.677C84.4182 156.014 81.5584 151.655 79.6321 146.663C79.2049 145.556 78.8698 144.422 78.5604 143.268L78.1589 143.169C76.3009 148.509 74.3857 153.773 73.3876 159.446C73.3194 159.835 73.4299 160.278 73.3342 160.763C73.2108 161.392 71.3214 165.032 70.896 165.663C68.8924 168.645 66.515 169.02 65.0731 165.224C64.5004 163.721 64.6772 161.992 64.4433 160.359C63.3274 152.549 62.0807 144.808 60.9537 136.979C60.6019 134.528 60.4307 131.687 59.9298 129.32C59.7641 128.537 58.8636 126.411 59.0956 125.789C59.2263 125.44 59.9832 124.944 60.0476 124.58L59.6388 119.513C59.8138 117.753 59.5541 115.739 59.672 114.034C59.8635 111.239 64.1892 112.201 64.5704 113.957C65.3494 121.088 65.8908 128.288 66.5279 135.406C67.0344 141.058 67.3695 146.518 68.4689 152.081C68.5536 152.509 69.3381 156.089 69.5204 156.082C69.7524 156.113 69.8482 155.868 69.9274 155.668C70.2533 154.852 70.4909 153.406 70.78 152.474C71.9788 148.609 73.441 144.598 74.4667 140.689C75.0762 138.365 75.2788 135.918 75.7742 133.693C76.2953 131.348 77.6986 129.85 79.7574 131.277C81.6284 132.572 80.0373 134.006 81.3705 135.327C81.6247 135.428 81.8088 134.628 82.1053 134.425C82.8217 133.931 83.5638 134.334 84.0536 135.007C84.84 136.09 86.1069 139.328 86.6815 140.738C87.4162 142.542 87.8582 144.724 88.9392 146.277C89.2854 144.519 89.5726 142.697 89.9704 140.956C90.7402 137.592 91.9058 134.33 91.8285 130.767C91.7622 127.745 90.4455 123.036 92.9131 120.79C93.0862 120.631 93.4104 120.656 93.5393 120.532C93.5835 120.488 94.0788 119.42 94.0972 119.337C94.3311 118.366 94.158 116.336 94.4103 115.211L95.5484 113.877L95.5907 111.001C97.3015 109.437 98.8023 110.414 99.0804 112.794C99.7783 118.765 99.7231 126.389 99.0804 132.345C98.887 134.131 98.4893 135.898 98.3162 137.699C97.5169 146.026 97.5685 155.915 98.434 164.171C98.5519 165.298 98.3696 166.062 97.5851 166.81C97.2131 167.163 96.6404 167.215 96.3144 167.485C95.7638 167.941 95.7178 168.815 94.6313 168.927C93.9205 169 92.7143 168.387 92.2834 167.747C91.904 167.184 92.1342 166.62 91.8451 166.004L91.8506 166.002Z" fill="black"/>
<path d="M120.652 66.7884C118.427 67.1378 121.226 69.0165 121.961 69.8433C125.633 73.9665 128.78 77.4073 132.708 81.2469C133.92 82.4323 135.281 84.4975 136.883 84.9439C137.297 85.0591 136.964 84.214 137.319 84.0603C139.01 84.6219 138.992 86.9049 139.498 88.5146C139.958 89.978 140.909 91.1981 140.651 92.8518C140.308 95.0451 137.933 94.4012 136.924 93.0567C136.471 92.453 135.881 90.589 135.474 90.2616C135.007 89.8866 134.34 90.3366 133.751 89.9725C133.191 89.6268 132.298 87.4171 131.607 87.1042C130.963 86.8116 129.6 87.1847 128.793 87.0366C126.744 86.6616 124.438 82.2951 122.991 80.7604C122.3 80.0287 120.715 79.3518 120.394 78.4354C119.845 76.8695 120.018 76.8457 118.932 75.4756C117.949 74.2354 116.713 73.0701 115.461 72.2086C115.242 72.3787 115.256 72.5543 115.238 72.8195C115.039 75.5817 115.63 80.2152 116.149 82.9884C116.254 83.55 117.004 85.6317 116.932 85.7488C116.917 85.7725 116.61 85.8347 116.474 86.025C116.243 86.3506 116.243 86.7786 116.044 87.1079C115.761 87.5799 115.122 87.9658 114.927 88.2914C114.437 89.1036 115.109 90.289 114.057 91.1231C113.102 91.8823 111.358 91.5896 110.746 90.3805C110.463 89.8225 110.439 88.9061 110.133 88.3939C109.988 88.1488 109.715 88.1122 109.586 87.9164C108.474 86.2079 108.769 83.6799 108.671 81.6311C108.629 80.7274 108.697 79.4012 108.586 78.6457C108.476 77.8902 107.669 76.8439 107.411 75.8872C105.981 70.6025 105.649 58.7726 105.839 53.0946C105.876 51.9824 106.027 50.8757 106.423 49.8641C106.655 49.5806 108.087 49.5239 108.433 49.6336C108.991 49.8111 108.802 50.7348 109.334 50.6361C109.424 49.0647 109.327 46.33 110.058 44.9818C110.271 44.5885 110.945 44.3269 111.001 44.208C111.268 43.6355 110.792 42.6971 111.592 41.8446C113.698 39.5965 117.89 38.5849 120.692 38.7276C124.066 38.9013 126.176 40.3885 129.158 41.2611C130.25 41.5794 131.522 41.4257 132.489 42.1593C133.294 42.7684 135.64 46.4086 135.962 47.422C136.082 47.8007 136.279 48.9733 136.251 49.3519C136.17 50.4422 134.629 54.3751 134.198 55.7196C133.299 58.5202 132.911 60.622 131.128 63.022C129.427 65.3104 126.768 65.9598 124.698 67.6848C124.346 67.9775 124.046 68.6086 123.639 68.7622C122.333 69.258 120.529 68.6415 120.656 66.7921L120.652 66.7884ZM129.049 45.8288C128.819 45.5635 128.281 45.2782 127.937 45.258C125.009 45.5196 122.066 45.0513 119.142 45.2836C117.571 45.408 116.405 46.4013 115.1 44.5282C114.218 44.3544 114.196 46.394 114.173 47.0745C114.041 50.9891 114.19 55.3812 114.31 59.2592C114.369 61.1671 114.282 63.1153 114.601 64.9866C115.781 64.3226 116.768 64.3811 117.945 63.5708C121.355 61.2257 125.764 57.322 127.803 53.3708C128.62 51.7867 130.366 47.3379 129.049 45.8269V45.8288Z" fill="black"/>
<path d="M156.867 46.1426C156.762 46.7664 157.077 47.3353 157.042 47.9536C157.007 48.5719 156.454 49.9383 156.292 50.7597C155.543 54.5682 155.445 58.8542 155.388 62.7523C156.09 62.9041 156.848 62.5548 157.471 62.52C159.937 62.3828 162.386 62.5511 164.87 62.7066C166.288 62.7962 168.693 62.2731 169.75 63.7401C170.418 64.6694 170.137 67.1663 169.212 67.7993C168.682 68.1614 166.927 68.0389 166.225 67.9694C163.016 67.6547 161.402 67.3182 158.051 67.6383C157.592 67.6822 155.917 67.5212 155.727 67.8505C155.602 69.548 155.952 71.1834 155.939 72.8938C155.924 74.7358 155.541 76.9035 155.592 78.7181C155.642 80.4925 156.34 82.5925 156.202 84.4419C157.145 84.3724 158.11 84.4602 159.051 84.3742C162.255 84.0779 164.957 83.0608 168.264 83.476C168.949 83.562 169.481 84.0303 170 84.1126C171.358 84.3285 177.608 84.5425 178.775 84.2663C179.223 84.1602 179.593 83.4852 180.118 83.5638C180.398 83.6059 181.854 84.9468 182.035 85.2651C182.394 85.8943 182.188 86.4779 182.385 86.84C182.504 87.0614 183.405 87.3705 183.705 87.612C184.838 88.5285 184.758 90.3595 184.029 91.5522C183.129 93.023 182 92.5291 180.696 92.723C178.915 92.9882 177.845 93.301 175.906 93.3467C171.52 93.451 167.623 93.9266 163.135 93.8041C159.27 93.6998 155.889 94.4114 152.129 92.6864C151.28 92.2967 150.434 91.3437 149.735 90.6687C148.324 89.3059 147.952 89.026 148.252 86.6681C149.475 77.07 148.429 68.0864 148.81 58.5706C148.895 56.445 149.199 55.2359 149.14 52.9292C149.094 51.1072 149.204 48.8536 149.007 47.103C148.771 45.003 146.287 42.7347 150.127 43.0786C150.455 42.1164 150.21 40.6018 150.84 39.817C151.051 39.5536 153.368 38.3353 153.701 38.2878C154.688 38.1451 156.287 38.7085 157.362 38.7085C158.635 38.7085 160.093 38.3207 161.36 38.2475C164.631 38.0591 167.658 38.3408 170.921 38.0372C172.247 37.9128 172.94 38.0518 173.862 39.2189C174.785 40.3859 174.75 43.6768 174.061 44.9042C172.726 47.2841 170.912 45.7658 169.071 45.5115C167.651 45.3158 165.607 45.2572 164.157 45.2426C161.699 45.217 159.244 45.4457 156.865 46.1408L156.867 46.1426Z" fill="black"/>
<path d="M109.504 38.6137C109.235 39.0143 107.936 40.046 107.489 40.1192C106.572 40.2673 104.786 39.199 103.631 39.6747C94.4216 41.235 85.6118 44.6978 76.6804 47.5295C76.5847 50.4088 76.4815 53.8112 75.8609 56.6045C75.3748 58.7996 74.3564 61.2325 73.7911 63.4551C73.6732 63.9179 73.0434 66.5044 73.2055 66.6855C75.5608 66.6307 77.8792 66.0435 80.1977 65.6429C83.0115 65.1581 85.6412 64.7356 88.4366 63.9874C90.0995 63.5429 91.4033 62.4325 93.1785 63.4788C94.335 64.1612 95.3478 66.2923 94.4345 67.6185C92.8839 69.8703 90.5599 68.802 88.4385 68.974C85.8106 69.1861 82.2234 70.0422 79.5882 70.6496C77.1629 71.2075 74.7487 72.0892 72.2995 72.5703C71.7654 74.213 72.0288 75.3215 72.6475 76.8416C72.4873 79.9148 71.294 83.7489 71.5205 86.7562C71.6236 88.1099 72.2258 89.2916 71.6402 90.6745C71.561 90.8593 69.5114 93.7092 69.3604 93.8556C69.051 94.1574 68.0161 94.6166 67.6054 94.6879C62.2264 95.6227 63.5817 91.2599 63.5173 87.1111C63.4675 83.8459 63.939 82.3916 64.3607 79.2819C64.4933 78.3087 64.9629 75.1971 64.6756 74.4764C64.5633 74.1947 63.9611 73.7904 63.7438 73.4191C62.3995 71.1252 65.1396 70.6148 65.5172 69.027C66.3624 65.4727 66.576 60.9051 66.9848 57.2228C67.2408 54.9124 67.7343 52.2764 67.8817 49.9515C67.9093 49.5143 67.843 49.0643 67.8522 48.6289C66.4305 49.0204 63.6628 47.5972 65.2299 45.6783C65.5135 45.3307 67.8596 44.3448 68.4765 44.0685C71.6936 42.6253 74.5903 41.7362 77.8424 40.5509C86.0022 37.5765 95.6167 33.468 104.097 32.2808C104.999 32.1546 106.128 32.4143 106.537 33.4844C106.697 33.9033 106.605 34.4832 106.82 34.7759C107.006 35.0302 107.71 35.0485 108.091 35.246C108.979 35.707 110.214 37.5509 109.502 38.6155L109.504 38.6137Z" fill="black"/>
<path d="M249.074 113.659C249.746 113.491 250.07 114.294 250.749 114.312C251.412 114.329 252.32 113.678 253.059 113.56C256.834 112.962 261.172 115.456 264.358 117.552C270.813 121.801 273.796 124.059 275.564 132.757C277.385 141.715 277.118 147.627 271.89 154.763C268.275 159.698 265.953 159.746 261.244 162.212C259.874 162.929 257.955 164.579 256.537 164.809C255.519 164.976 254.989 164.035 254.462 163.161C253.944 162.301 253.598 161.703 253.764 160.569C253.817 160.198 254.103 159.982 254.165 159.634C254.248 159.179 254.132 157.874 253.843 157.556C253.272 156.93 252.917 157.924 252.458 155.954C251.753 152.915 251.175 149.257 250.665 146.138C250.28 143.795 249.924 137.765 248.904 136.099C248.354 135.199 247.516 135.495 247.289 133.867C247.083 132.38 247.35 130.812 248.906 130.852L248.853 122.013C248.551 120.974 248.733 119.884 248.617 118.851C248.455 117.415 247.182 114.131 249.074 113.657V113.659ZM267.13 152.222C267.574 152.579 268.297 150.202 268.376 149.891C268.651 148.799 268.991 147.424 269.225 146.35C270.109 142.293 268.767 137.615 270.22 133.527C269.621 131.977 268.997 130.245 267.966 128.999C266.865 127.67 266.64 128.365 265.476 127.818C264.911 127.552 264.434 126.923 263.752 126.621C262.252 125.957 260.349 125.707 258.743 125.017C257.051 124.291 256.016 123.107 254.042 123.402C253.854 123.429 253.611 123.46 253.458 123.578C252.989 123.938 253.549 126.834 253.602 127.562C254.083 134.156 254.664 142.691 256.491 148.94C256.814 150.041 257.206 150.272 257.508 150.985C258.239 152.714 258.675 154.605 259.064 156.462C259.344 156.733 261.78 155.269 262.158 154.957C263.484 153.857 264.782 149.71 266.894 151.695C267.034 151.827 267.111 152.019 267.132 152.222H267.13ZM272.268 141.338L272.38 146.101C272.603 146.006 272.686 145.304 272.741 145.035C272.956 143.992 273.792 141.107 272.268 141.338Z" fill="black"/>
<path d="M185.137 35.2172C185.915 35.0238 186.291 35.9464 187.078 35.9674C187.846 35.9863 188.897 35.2382 189.752 35.1037C194.124 34.4165 199.149 37.2808 202.839 39.689C210.314 44.5707 213.769 47.1639 215.817 57.1563C217.926 67.447 217.617 74.2389 211.562 82.4367C207.375 88.1064 204.686 88.161 199.232 90.9938C197.646 91.8175 195.423 93.713 193.781 93.9778C192.602 94.169 191.987 93.0889 191.377 92.0844C190.778 91.0967 190.377 90.4096 190.569 89.1067C190.631 88.6801 190.962 88.4321 191.034 88.0328C191.13 87.5096 190.996 86.0112 190.661 85.6456C190 84.9269 189.588 86.068 189.057 83.8047C188.24 80.3142 187.57 76.1113 186.98 72.5283C186.534 69.8364 186.122 62.91 184.941 60.9956C184.303 59.9617 183.333 60.3021 183.07 58.4318C182.831 56.7234 183.141 54.9224 184.943 54.9687L184.881 44.8145C184.531 43.6209 184.742 42.3684 184.608 41.1811C184.42 39.5314 182.947 35.7593 185.137 35.2151V35.2172ZM206.049 79.5178C206.563 79.9275 207.401 77.1978 207.493 76.8405C207.81 75.5859 208.205 74.0057 208.476 72.7721C209.499 68.1111 207.945 62.7377 209.627 58.041C208.934 56.2611 208.211 54.271 207.017 52.8399C205.742 51.3121 205.481 52.1107 204.133 51.4824C203.479 51.1776 202.926 50.4548 202.137 50.108C200.399 49.3452 198.196 49.0573 196.336 48.265C194.376 47.4308 193.177 46.0711 190.891 46.4095C190.674 46.441 190.392 46.4767 190.215 46.6112C189.671 47.0252 190.32 50.3518 190.381 51.1882C190.938 58.7639 191.612 68.5692 193.728 75.7478C194.101 77.0128 194.555 77.2776 194.905 78.0972C195.752 80.083 196.257 82.2559 196.707 84.3889C197.031 84.6999 199.853 83.0188 200.29 82.6594C201.826 81.3964 203.329 76.6325 205.776 78.9125C205.938 79.0638 206.027 79.2845 206.051 79.5178H206.049ZM211.999 67.0142L212.129 72.4863C212.387 72.377 212.483 71.5701 212.547 71.2612C212.797 70.0633 213.765 66.7494 211.999 67.0142Z" fill="black"/>
<path d="M224.137 35.2172C224.915 35.0238 225.291 35.9464 226.078 35.9674C226.846 35.9863 227.897 35.2382 228.752 35.1037C233.124 34.4165 238.149 37.2808 241.839 39.689C249.314 44.5707 252.769 47.1639 254.817 57.1563C256.926 67.447 256.617 74.2389 250.562 82.4367C246.375 88.1064 243.686 88.161 238.232 90.9938C236.646 91.8175 234.423 93.713 232.781 93.9778C231.602 94.169 230.987 93.0889 230.377 92.0844C229.778 91.0967 229.377 90.4096 229.569 89.1067C229.631 88.6801 229.962 88.4321 230.034 88.0328C230.13 87.5096 229.996 86.0112 229.661 85.6456C229 84.9269 228.588 86.068 228.057 83.8047C227.24 80.3142 226.57 76.1113 225.98 72.5283C225.534 69.8364 225.122 62.91 223.941 60.9956C223.303 59.9617 222.333 60.3021 222.07 58.4318C221.831 56.7234 222.141 54.9224 223.943 54.9687L223.881 44.8145C223.531 43.6209 223.742 42.3684 223.608 41.1811C223.42 39.5314 221.947 35.7593 224.137 35.2151V35.2172ZM245.049 79.5178C245.563 79.9275 246.401 77.1978 246.493 76.8405C246.81 75.5859 247.205 74.0057 247.476 72.7721C248.499 68.1111 246.945 62.7377 248.627 58.041C247.934 56.2611 247.211 54.271 246.017 52.8399C244.742 51.3121 244.481 52.1107 243.133 51.4824C242.479 51.1776 241.926 50.4548 241.137 50.108C239.399 49.3452 237.196 49.0573 235.336 48.265C233.376 47.4308 232.177 46.0711 229.891 46.4095C229.674 46.441 229.392 46.4767 229.215 46.6112C228.671 47.0252 229.32 50.3518 229.381 51.1882C229.938 58.7639 230.612 68.5692 232.728 75.7478C233.101 77.0128 233.555 77.2776 233.905 78.0972C234.752 80.083 235.257 82.2559 235.707 84.3889C236.031 84.6999 238.853 83.0188 239.29 82.6594C240.826 81.3964 242.329 76.6325 244.776 78.9125C244.938 79.0638 245.027 79.2845 245.051 79.5178H245.049ZM250.999 67.0142L251.129 72.4863C251.387 72.377 251.483 71.5701 251.547 71.2612C251.797 70.0633 252.765 66.7494 250.999 67.0142Z" fill="black"/>
<path d="M265.566 90.0017C265.714 91.5676 265.968 92.8719 265.13 94.253C263.924 96.2395 262.294 96.1517 260.891 94.4341C259.455 92.6761 260.274 91.4304 260.447 89.4822C260.766 85.8932 260.191 81.8963 260.357 78.2103C260.451 76.1396 260.849 74.0798 260.981 72.0164C261.524 63.461 260.85 55.2842 260.539 46.7799C260.418 43.4434 259.659 40.372 260.182 36.9348C260.381 35.6324 260.81 35.0928 262.042 35.0031C263.082 34.9281 265.692 36.2123 266.252 37.2202C266.97 38.5098 266.6 41.036 267.021 42.461C267.305 43.4196 268.367 43.6391 268.52 44.8336C269.257 50.6214 268.06 57.4738 268.487 63.3695L268.261 67.0756C268.605 73.0701 268.605 79.0719 268.835 85.0792C268.892 86.5499 269.391 87.4298 268.599 88.9316C267.855 90.342 266.854 90.2487 265.566 89.9999V90.0017Z" fill="black"/>
<path d="M181.117 143.674C181.623 143.008 182.976 143.268 183.741 143.191C185.823 142.981 187.372 143.224 189.453 143.257C190.505 143.274 191.565 143.164 192.617 143.175C191.598 140.184 190.935 137.06 190.046 134.019C189.842 133.319 189.263 132.239 189.144 131.656C189 130.948 189.166 130.154 189.022 129.443C188.67 127.703 186.081 125.158 189.405 124.262C189.061 122.914 188.932 121.496 188.61 120.144C188.147 118.202 187.112 116.38 187.621 114.293C188.448 113.74 189.514 113.822 190.239 114.56C191.497 115.833 192.641 123.424 193.206 125.689C194.191 129.644 195.561 132.688 196.998 136.372C197.732 138.26 198.46 141.285 199.41 142.906C199.834 143.63 201.132 143.784 201.403 144.867C201.784 146.394 200.673 147.26 200.751 148.169C200.858 149.438 202.172 150.622 202.456 151.767C202.633 152.478 202.474 153.179 202.651 153.891C202.881 154.82 204.588 157.816 205.183 158.65C206.82 160.952 209.31 162.206 206.439 165.411C205.165 165.389 204.128 165.94 202.894 165.388C200.773 164.44 200.298 159.512 199.296 157.374C198.871 156.464 198.208 156.23 197.683 155.5C196.401 153.715 195.946 150.702 194.808 148.785C191.744 149.96 188.518 150.21 185.339 150.779C184.753 150.883 184.122 151.236 183.621 151.311C181.214 151.675 180.111 149.098 181.918 147.216C180.87 146.66 180.343 144.686 181.117 143.672V143.674Z" fill="black"/>
<path d="M168.32 163.269C167.336 162.234 168.075 161.107 168.277 159.987C168.742 157.424 169.301 154.94 169.784 152.35C170.717 147.329 172.765 143.18 174.605 138.537C176.174 134.575 178.699 129.587 179.84 125.694C180.109 124.776 180.139 123.643 180.492 122.796C181.063 121.426 182.231 121.564 183.07 120.629C183.86 119.749 183.857 118.309 185.326 118.267C186.623 118.231 187.72 119.11 187.392 120.711C186.98 122.725 185.514 125.334 185.078 127.463C185.072 129.294 183.921 130.735 183.35 132.453C181.781 137.182 180.833 142.582 179.42 147.413C178.54 150.42 176.308 154.648 175.754 157.329C175.275 159.64 175.763 163.349 173.342 164.489C172.215 165.02 171.868 164.114 171.132 163.979C170.242 163.816 169.156 164.149 168.322 163.271L168.32 163.269Z" fill="black"/>
<path d="M112.081 124.697C112.628 124.524 113.634 124.899 114.061 125.316C114.522 125.764 114.571 126.466 114.875 126.878C115.242 127.375 116.153 127.738 116.339 128.566C116.634 129.876 115.818 131.63 115.849 133.13C115.866 133.893 116.19 134.989 116.23 135.77C116.462 140.103 115.805 143.789 115.636 148.011C115.411 153.627 115.765 159.318 115.685 164.912C115.625 169.203 113.645 171.168 113.159 174.356C112.989 175.463 113.367 176.994 112.183 177.761C110.999 178.527 109.194 177.889 108.772 176.458C108.566 175.759 108.581 173.175 108.599 172.297C108.708 167.314 109.292 162.269 109.481 157.273C109.822 148.288 110.772 139.397 111.024 130.423C111.065 128.95 110.42 125.222 112.08 124.696L112.081 124.697Z" fill="black"/>
<path d="M259.862 17.3859C260.231 17.6238 261.932 16.4018 262.317 16.0908C263.383 15.2347 264.449 13.2774 265.851 14.278C266.011 14.3914 266.637 15.0884 266.689 15.2658C267.374 17.6677 263.659 18.8292 264.061 20.5615C264.243 21.3463 268.166 20.4829 268.858 22.8207C269.007 23.3237 269.291 25.0817 269.285 25.581C269.276 26.5908 268.265 27.7542 267.4 27.8438C266.263 27.9627 264.54 25.8902 263.593 26.4207C263.496 26.4756 262.216 28.1951 262.173 28.3103C261.971 28.8591 262.214 29.589 262.133 30.1579C262.052 30.7268 260.93 31.7365 260.439 31.9158C256.745 33.2694 258.805 27.3243 257.853 25.2335C256.163 25.228 255.168 28.1713 253.693 28.1585C252.106 28.1457 250.288 25.8774 251.284 24.1487C252.167 22.614 255.096 22.7329 256.209 21.2658C256.249 21.1103 255.584 18.864 255.467 18.5768C254.918 17.2451 253.962 16.8719 254.66 15.1158C255.835 12.1561 258.949 16.0067 259.86 17.3841L259.862 17.3859Z" fill="black"/>
<path d="M224.287 140.826C222.062 141.175 224.861 143.054 225.596 143.88C229.268 148.004 232.415 151.444 236.343 155.284C237.555 156.469 238.916 158.535 240.518 158.981C240.932 159.096 240.599 158.251 240.954 158.097C242.645 158.659 242.626 160.942 243.133 162.552C243.593 164.015 244.543 165.235 244.286 166.889C243.943 169.082 241.567 168.438 240.558 167.094C240.105 166.49 239.516 164.626 239.109 164.299C238.641 163.924 237.975 164.374 237.385 164.01C236.826 163.664 235.932 161.454 235.242 161.141C234.597 160.849 233.235 161.222 232.428 161.074C230.378 160.699 228.073 156.332 226.625 154.797C225.935 154.066 224.349 153.389 224.029 152.472C223.48 150.907 223.653 150.883 222.567 149.513C221.583 148.272 220.348 147.107 219.095 146.246C218.876 146.416 218.891 146.591 218.873 146.857C218.674 149.619 219.265 154.252 219.784 157.026C219.889 157.587 220.639 159.669 220.567 159.786C220.552 159.81 220.245 159.872 220.108 160.062C219.878 160.388 219.878 160.816 219.679 161.145C219.396 161.617 218.757 162.003 218.561 162.329C218.072 163.141 218.744 164.326 217.692 165.16C216.736 165.919 214.993 165.627 214.381 164.418C214.098 163.86 214.074 162.943 213.768 162.431C213.622 162.186 213.35 162.149 213.221 161.954C212.109 160.245 212.403 157.717 212.306 155.668C212.263 154.765 212.332 153.438 212.221 152.683C212.109 151.905 211.304 150.881 211.046 149.924C209.615 144.64 209.284 132.81 209.474 127.132C209.51 126.02 209.661 124.913 210.057 123.901C210.289 123.618 211.722 123.561 212.068 123.671C212.626 123.848 212.437 124.772 212.969 124.673C213.059 123.102 212.961 120.367 213.692 119.019C213.906 118.626 214.58 118.364 214.635 118.245C214.902 117.673 214.427 116.734 215.226 115.882C217.333 113.634 221.524 112.622 224.327 112.765C227.701 112.938 229.811 114.426 232.793 115.298C233.885 115.616 235.157 115.463 236.124 116.196C236.929 116.806 239.275 120.446 239.597 121.459C239.717 121.838 239.914 123.01 239.886 123.389C239.805 124.479 238.264 128.412 237.833 129.757C236.934 132.557 236.546 134.659 234.763 137.059C233.061 139.348 230.402 139.997 228.332 141.722C227.981 142.015 227.681 142.646 227.274 142.799C225.968 143.295 224.163 142.679 224.29 140.829L224.287 140.826ZM232.684 119.866C232.454 119.601 231.916 119.315 231.572 119.295C228.644 119.557 225.701 119.088 222.777 119.321C221.206 119.445 220.04 120.438 218.735 118.565C217.852 118.391 217.83 120.431 217.808 121.112C217.676 125.026 217.825 129.418 217.944 133.296C218.003 135.204 217.917 137.152 218.235 139.024C219.416 138.36 220.403 138.418 221.58 137.608C224.99 135.263 229.399 131.359 231.437 127.408C232.255 125.824 234.001 121.375 232.684 119.864V119.866Z" fill="black"/>
<path d="M111.875 107.743C112.244 107.981 113.945 106.759 114.33 106.448C115.396 105.592 116.463 103.635 117.864 104.635C118.024 104.749 118.65 105.446 118.702 105.623C119.387 108.025 115.673 109.187 116.074 110.919C116.256 111.704 120.179 110.84 120.871 113.178C121.02 113.681 121.304 115.439 121.298 115.938C121.289 116.948 120.278 118.112 119.413 118.201C118.277 118.32 116.553 116.248 115.606 116.778C115.509 116.833 114.229 118.552 114.187 118.668C113.984 119.216 114.227 119.946 114.146 120.515C114.065 121.084 112.944 122.094 112.452 122.273C108.758 123.627 110.818 117.682 109.866 115.591C108.176 115.585 107.181 118.529 105.706 118.516C104.119 118.503 102.301 116.235 103.298 114.506C104.18 112.971 107.11 113.09 108.222 111.623C108.262 111.468 107.598 109.221 107.48 108.934C106.931 107.603 105.975 107.229 106.673 105.473C107.848 102.514 110.962 106.364 111.874 107.742L111.875 107.743Z" fill="black"/>
</svg>
