<svg width="267" height="111" viewBox="0 0 267 111" fill="none" xmlns="http://www.w3.org/2000/svg">
<path d="M167.882 91.6017C168.884 91.4846 169.89 91.668 170.889 91.6358C172.552 91.582 174.233 91.2691 175.909 91.2536C177.107 91.2422 178.416 91.4711 179.582 91.44C180.366 91.4193 181.154 90.9563 181.917 91.3924C182.535 91.7467 182.699 92.3921 182.491 93.1577C182.465 93.2519 181.709 94.7002 181.623 94.8349C181.575 94.9095 180.887 95.5974 180.833 95.6243C180.526 95.7766 180.027 95.7144 179.679 95.732C176.618 95.8885 173.492 96.4354 170.391 96.5504C169.25 96.5929 168.009 96.4116 166.82 96.5204C166.38 96.5608 165.878 96.8446 165.437 96.7535C165.362 96.7379 164.825 96.3774 164.779 96.3101C164.572 96.0076 164.878 95.6968 164.846 95.6699C164.592 95.6284 164.361 95.788 164.113 95.789C163.663 95.79 163.448 95.4834 163.097 95.3612C162.259 95.069 161.383 95.0037 160.681 94.2651C160.616 93.2706 160.196 92.3237 161.181 91.8068C160.295 90.3678 161.619 90.2725 162.16 89.3661C162.518 88.7662 162.713 87.8857 163.046 87.2216C163.713 85.8894 164.798 84.7467 165.501 83.3906C165.828 82.7587 166.038 82.0387 166.355 81.4068C167.296 79.5327 168.596 77.7954 169.915 76.256C171.669 74.211 173.621 72.3711 176.025 71.418C176.19 71.1342 175.376 70.5323 175.192 70.4204C173.951 69.6683 170.695 68.708 169.309 68.6728C167.956 68.6375 166.068 69.4746 164.8 69.2736C163.923 69.1348 164.346 68.2521 164.072 68.1972C163.176 68.6013 162.229 68.6852 161.896 67.4306C161.83 67.1841 161.857 66.9127 161.8 66.7251C161.598 66.0642 161.058 65.4799 161.492 64.6864C161.596 64.4968 161.792 64.4222 161.835 64.2834C161.946 63.9218 161.833 63.2827 162.003 62.9097C162.309 62.2384 164.276 61.9452 164.92 61.8717C165.023 60.3364 165.881 60.4648 166.879 60.9196C168.371 61.6003 169.886 62.6663 171.373 63.4173C174.056 64.7734 176.797 65.6799 179.591 66.6682C180.278 66.9116 181.469 66.9862 181.864 67.7311C182.472 68.8779 180.716 69.9698 180.238 70.7291C179.759 71.4895 179.818 71.7402 179.69 72.5628C179.59 73.2134 178.747 73.7034 178.409 74.2732C178.129 74.7424 177.95 75.4023 177.683 75.911C176.959 77.2899 175.604 78.6957 174.62 79.8539C172.291 82.595 170.45 84.1749 169.027 87.838C168.75 88.5518 168.046 90.4227 167.917 91.0992C167.883 91.2701 167.862 91.4255 167.885 91.6006L167.882 91.6017Z" fill="black"/>
<path d="M142.17 94.0113C140.37 94.319 140.052 92.36 139.344 90.9956C137.975 88.3549 136.361 85.8863 135.273 83.0591C135.032 82.4324 134.843 81.7901 134.668 81.1364L134.442 81.0804C133.393 84.1044 132.312 87.0859 131.748 90.2984C131.71 90.5191 131.772 90.7698 131.718 91.0443C131.649 91.4007 130.582 93.4622 130.342 93.8196C129.211 95.5083 127.869 95.7206 127.055 93.571C126.732 92.7194 126.832 91.7405 126.7 90.8154C126.07 86.3928 125.366 82.0087 124.73 77.5748C124.531 76.1866 124.435 74.5777 124.152 73.2372C124.059 72.7938 123.55 71.59 123.681 71.2378C123.755 71.0399 124.182 70.7592 124.219 70.553L123.988 67.6834C124.087 66.6868 123.94 65.5462 124.007 64.5807C124.115 62.9978 126.556 63.5427 126.772 64.5372C127.211 68.5754 127.517 72.6529 127.876 76.6838C128.162 79.8849 128.351 82.9773 128.972 86.1276C129.02 86.3701 129.463 88.3974 129.566 88.3933C129.697 88.4109 129.751 88.2721 129.795 88.1592C129.979 87.6971 130.113 86.8777 130.277 86.3504C130.953 84.1614 131.779 81.8895 132.358 79.6757C132.702 78.36 132.816 76.9739 133.096 75.7142C133.39 74.3861 134.182 73.5376 135.344 74.3457C136.4 75.0791 135.502 75.8913 136.255 76.6393C136.398 76.6963 136.502 76.2435 136.669 76.1286C137.074 75.8488 137.493 76.0768 137.769 76.458C138.213 77.0713 138.928 78.9049 139.252 79.7036C139.667 80.7251 139.917 81.961 140.527 82.8405C140.722 81.845 140.884 80.8132 141.109 79.8269C141.543 77.9218 142.201 76.0747 142.158 74.0566C142.12 72.3452 141.377 69.6787 142.77 68.4065C142.868 68.3164 143.051 68.3309 143.123 68.2604C143.148 68.2356 143.428 67.6306 143.438 67.584C143.57 67.0339 143.473 65.8839 143.615 65.2468L144.257 64.4916L144.281 62.8631C145.247 61.9773 146.094 62.5305 146.251 63.8783C146.645 67.2597 146.614 71.5776 146.251 74.9507C146.142 75.9618 145.917 76.9625 145.82 77.9829C145.369 82.6986 145.398 88.299 145.886 92.9743C145.953 93.6124 145.85 94.0455 145.407 94.4692C145.197 94.6691 144.874 94.6981 144.69 94.8515C144.379 95.1094 144.353 95.6046 143.74 95.6678C143.338 95.7092 142.658 95.3622 142.414 94.9996C142.2 94.6805 142.33 94.3614 142.167 94.0123L142.17 94.0113Z" fill="black"/>
<path d="M158.427 37.8239C157.172 38.0218 158.752 39.0857 159.166 39.554C161.239 41.889 163.015 43.8377 165.233 46.0122C165.917 46.6835 166.685 47.8531 167.589 48.1058C167.823 48.1711 167.635 47.6925 167.835 47.6055C168.79 47.9235 168.779 49.2164 169.065 50.128C169.325 50.9568 169.861 51.6478 169.716 52.5843C169.522 53.8264 168.182 53.4618 167.612 52.7003C167.356 52.3585 167.024 51.3028 166.794 51.1174C166.53 50.905 166.154 51.1598 165.821 50.9537C165.505 50.7579 165.001 49.5065 164.611 49.3293C164.247 49.1636 163.478 49.3749 163.023 49.291C161.866 49.0786 160.564 46.6058 159.747 45.7366C159.358 45.3222 158.463 44.9389 158.282 44.4199C157.972 43.5331 158.07 43.5196 157.456 42.7437C156.901 42.0413 156.204 41.3814 155.497 40.8935C155.373 40.9898 155.382 41.0893 155.371 41.2395C155.259 42.8038 155.593 45.4279 155.886 46.9984C155.945 47.3164 156.368 48.4954 156.328 48.5617C156.319 48.5751 156.146 48.6103 156.069 48.7181C155.939 48.9025 155.939 49.1449 155.827 49.3314C155.666 49.5987 155.306 49.8172 155.196 50.0016C154.919 50.4616 155.298 51.1329 154.705 51.6053C154.165 52.0352 153.181 51.8695 152.836 51.1847C152.676 50.8687 152.662 50.3497 152.49 50.0597C152.408 49.9208 152.254 49.9001 152.181 49.7893C151.553 48.8217 151.72 47.39 151.665 46.2297C151.641 45.7179 151.679 44.9669 151.617 44.539C151.554 44.1112 151.099 43.5186 150.954 42.9768C150.146 39.9839 149.959 33.2844 150.066 30.0687C150.087 29.4389 150.172 28.8121 150.395 28.2392C150.526 28.0787 151.335 28.0465 151.53 28.1087C151.845 28.2092 151.738 28.7323 152.039 28.6764C152.09 27.7865 152.035 26.2378 152.447 25.4743C152.568 25.2515 152.948 25.1034 152.979 25.036C153.13 24.7118 152.862 24.1803 153.313 23.6976C154.502 22.4244 156.868 21.8515 158.45 21.9323C160.354 22.0307 161.546 22.873 163.229 23.3671C163.845 23.5474 164.563 23.4603 165.109 23.8758C165.563 24.2207 166.887 26.2823 167.069 26.8562C167.137 27.0707 167.248 27.7347 167.233 27.9492C167.187 28.5666 166.317 30.7939 166.074 31.5553C165.566 33.1414 165.347 34.3317 164.341 35.6909C163.38 36.9869 161.879 37.3546 160.711 38.3316C160.512 38.4973 160.343 38.8547 160.113 38.9417C159.376 39.2225 158.358 38.8734 158.429 37.826L158.427 37.8239ZM163.167 25.9539C163.037 25.8037 162.734 25.6421 162.539 25.6307C160.887 25.7788 159.226 25.5136 157.575 25.6452C156.688 25.7156 156.03 26.2782 155.293 25.2173C154.795 25.1189 154.783 26.274 154.77 26.6594C154.696 28.8763 154.78 31.3637 154.847 33.5599C154.881 34.6404 154.832 35.7437 155.012 36.8035C155.678 36.4275 156.235 36.4606 156.899 36.0017C158.824 34.6736 161.313 32.4628 162.463 30.2252C162.925 29.328 163.91 26.8086 163.167 25.9529V25.9539Z" fill="black"/>
<path d="M197.812 21.4661C200.406 21.1584 201.641 21.7521 204.013 22.3653C205.05 22.6337 206.215 22.557 207.179 23.277C207.807 23.7463 209.66 25.8907 209.781 26.7174C209.883 27.4167 209.965 27.9336 210.084 28.6111C210.559 31.2922 210.27 34.3752 209.138 36.8035C208.459 38.2621 207.837 39.9725 206.992 41.2644C206.24 42.4122 205.176 43.9133 204.341 44.9783C203.167 46.4773 201.689 47.592 200.344 48.8704C200.095 49.1066 199.865 49.5355 199.618 49.7302C199.218 50.0441 198.757 49.9271 198.421 50.1695C198.03 50.4512 197.899 51.2552 197.291 51.5587C197.033 51.6871 195.992 51.8943 195.716 51.8809C195.218 51.857 194.515 51.0946 194.427 50.5486C194.341 50.0099 194.492 49.5479 194.477 49.06C194.384 46.1168 193.818 42.953 193.649 39.9818C193.432 36.1415 193.693 32.5695 193.912 28.7748C194.04 26.5734 193.774 24.5284 194.824 22.5694C194.891 22.4441 195.268 22.0732 195.377 22.0079C195.675 21.8308 197.391 21.5159 197.813 21.4661H197.812ZM198.006 43.8242C198.138 43.8574 198.21 43.7848 198.313 43.7248C199.793 42.8639 202.262 40.8199 203.645 39.6389C204.218 39.15 206.528 36.645 206.605 35.9727C206.585 33.7163 206.959 30.4355 205.134 28.9219C204.156 28.1108 201.822 26.4315 200.706 26.1404C200.367 26.0523 199.416 25.8327 199.178 26.1269C199.096 26.2284 198.682 27.5431 198.61 27.7917C197.755 30.7214 197.754 35.9758 198.167 39.0578C198.274 39.8565 198.712 41.398 198.662 42.062C198.607 42.7955 197.997 43.1363 198.005 43.8232L198.006 43.8242Z" fill="black"/>
<path d="M176.888 25.9301C176.829 26.2833 177.007 26.6055 176.987 26.9557C176.967 27.3058 176.655 28.0797 176.564 28.5448C176.141 30.7017 176.086 33.129 176.053 35.3366C176.449 35.4226 176.878 35.2247 177.229 35.205C178.621 35.1273 180.003 35.2226 181.406 35.3107C182.206 35.3615 183.563 35.0652 184.16 35.896C184.537 36.4223 184.378 37.8364 183.857 38.1948C183.557 38.3999 182.567 38.3305 182.171 38.2912C180.359 38.113 179.448 37.9224 177.556 38.1036C177.298 38.1285 176.352 38.0373 176.245 38.2238C176.174 39.1852 176.371 40.1113 176.364 41.08C176.356 42.1232 176.14 43.3508 176.169 44.3785C176.197 45.3833 176.591 46.5726 176.513 47.62C177.045 47.5806 177.59 47.6303 178.121 47.5816C179.93 47.4138 181.454 46.8378 183.321 47.073C183.708 47.1217 184.008 47.3869 184.302 47.4335C185.068 47.5557 188.596 47.677 189.255 47.5205C189.507 47.4604 189.716 47.0782 190.012 47.1227C190.17 47.1465 190.993 47.9059 191.094 48.0862C191.297 48.4425 191.181 48.773 191.292 48.9781C191.359 49.1035 191.868 49.2785 192.037 49.4153C192.676 49.9343 192.632 50.9713 192.22 51.6467C191.712 52.4797 191.075 52.2 190.339 52.3098C189.334 52.46 188.73 52.6371 187.635 52.663C185.159 52.7221 182.96 52.9914 180.426 52.922C178.245 52.863 176.336 53.266 174.214 52.289C173.734 52.0684 173.257 51.5286 172.862 51.1464C172.066 50.3746 171.856 50.2161 172.025 48.8807C172.716 43.4451 172.125 38.3575 172.34 32.9684C172.388 31.7646 172.56 31.0798 172.527 29.7735C172.501 28.7417 172.563 27.4654 172.452 26.474C172.319 25.2847 170.916 24.0001 173.084 24.1948C173.269 23.6499 173.13 22.7922 173.486 22.3477C173.605 22.1986 174.913 21.5086 175.101 21.4817C175.658 21.4009 176.561 21.7199 177.168 21.7199C177.886 21.7199 178.709 21.5003 179.424 21.4589C181.27 21.3522 182.979 21.5117 184.821 21.3397C185.57 21.2693 185.96 21.348 186.481 22.009C187.002 22.6699 186.982 24.5336 186.594 25.2287C185.84 26.5765 184.816 25.7167 183.777 25.5727C182.975 25.4618 181.821 25.4287 181.003 25.4204C179.616 25.4059 178.23 25.5354 176.887 25.929L176.888 25.9301Z" fill="black"/>
<path d="M152.134 21.8681C151.983 22.095 151.25 22.6792 150.997 22.7207C150.48 22.8046 149.471 22.1996 148.82 22.4689C143.621 23.3526 138.648 25.3137 133.607 26.9173C133.553 28.5479 133.495 30.4748 133.144 32.0567C132.87 33.2999 132.295 34.6777 131.976 35.9364C131.91 36.1985 131.554 37.6634 131.646 37.7659C132.975 37.7348 134.284 37.4023 135.592 37.1754C137.181 36.9009 138.665 36.6616 140.243 36.2379C141.182 35.9861 141.917 35.3573 142.92 35.9499C143.572 36.3363 144.144 37.5432 143.628 38.2943C142.753 39.5695 141.441 38.9645 140.244 39.0619C138.761 39.1821 136.736 39.6669 135.248 40.0108C133.879 40.3268 132.517 40.8261 131.134 41.0986C130.833 42.0289 130.981 42.6567 131.331 43.5176C131.24 45.258 130.567 47.4294 130.694 49.1325C130.753 49.8991 131.093 50.5683 130.762 51.3515C130.717 51.4561 129.56 53.0702 129.475 53.153C129.301 53.324 128.716 53.584 128.485 53.6244C125.448 54.1538 126.213 51.683 126.177 49.3334C126.149 47.4843 126.415 46.6607 126.653 44.8995C126.728 44.3484 126.993 42.5862 126.831 42.1781C126.767 42.0185 126.427 41.7896 126.305 41.5793C125.546 40.2802 127.093 39.9912 127.306 39.0919C127.783 37.0791 127.903 34.4923 128.134 32.4069C128.279 31.0985 128.557 29.6057 128.64 28.289C128.656 28.0414 128.619 27.7865 128.624 27.54C127.821 27.7617 126.259 26.9557 127.144 25.869C127.304 25.6721 128.628 25.1137 128.976 24.9573C130.792 24.1399 132.427 23.6365 134.263 22.9652C138.869 21.2807 144.296 18.9539 149.083 18.2816C149.592 18.2101 150.229 18.3572 150.46 18.9632C150.55 19.2005 150.498 19.5289 150.62 19.6946C150.725 19.8386 151.122 19.849 151.337 19.9609C151.838 20.2219 152.536 21.2662 152.133 21.8691L152.134 21.8681Z" fill="black"/>
<path d="M230.916 64.3683C231.296 64.273 231.478 64.7278 231.862 64.7382C232.236 64.7475 232.749 64.3787 233.166 64.3124C235.296 63.9736 237.745 65.3857 239.544 66.5729C243.187 68.9794 244.871 70.2578 245.869 75.1838C246.897 80.2569 246.746 83.6051 243.795 87.6464C241.755 90.4414 240.444 90.4683 237.786 91.8648C237.013 92.2709 235.929 93.2053 235.129 93.3359C234.554 93.4301 234.255 92.8976 233.958 92.4025C233.666 91.9156 233.47 91.5768 233.564 90.9345C233.594 90.7242 233.755 90.602 233.79 90.4051C233.837 90.1472 233.772 89.4085 233.608 89.2283C233.286 88.874 233.085 89.4365 232.827 88.3208C232.429 86.6 232.102 84.5281 231.814 82.7618C231.597 81.4347 231.396 78.0202 230.821 77.0765C230.51 76.5668 230.037 76.7346 229.909 75.8126C229.792 74.9704 229.943 74.0825 230.822 74.1053L230.791 69.0996C230.621 68.5111 230.724 67.8937 230.658 67.3084C230.567 66.4952 229.849 64.6356 230.916 64.3673V64.3683ZM241.108 86.2074C241.359 86.4094 241.767 85.0637 241.812 84.8876C241.967 84.2691 242.159 83.4901 242.291 82.882C242.79 80.5842 242.032 77.9353 242.852 75.6199C242.514 74.7424 242.162 73.7614 241.58 73.0559C240.958 72.3028 240.832 72.6964 240.175 72.3867C239.856 72.2365 239.586 71.8801 239.202 71.7092C238.355 71.3331 237.281 71.1912 236.374 70.8006C235.419 70.3893 234.835 69.7191 233.721 69.8859C233.615 69.9014 233.477 69.919 233.391 69.9853C233.126 70.1894 233.442 71.8293 233.472 72.2416C233.743 75.9763 234.072 80.8101 235.103 84.3489C235.285 84.9725 235.506 85.1031 235.677 85.5071C236.09 86.4861 236.336 87.5573 236.555 88.6088C236.713 88.7621 238.088 87.9333 238.302 87.7562C239.05 87.1336 239.783 84.785 240.975 85.9091C241.054 85.9836 241.098 86.0924 241.109 86.2074H241.108ZM244.008 80.0435L244.072 82.7411C244.197 82.6872 244.244 82.2894 244.275 82.1371C244.397 81.5466 244.869 79.9129 244.008 80.0435Z" fill="black"/>
<path d="M235.417 51.1536C235.5 52.0404 235.644 52.7791 235.171 53.5612C234.49 54.6863 233.57 54.6365 232.778 53.6638C231.967 52.6682 232.43 51.9627 232.527 50.8594C232.707 48.8269 232.383 46.5633 232.476 44.4758C232.529 43.3031 232.754 42.1366 232.829 40.9681C233.135 36.1229 232.755 31.4922 232.579 26.676C232.511 24.7864 232.082 23.047 232.378 21.1004C232.49 20.3628 232.732 20.0572 233.427 20.0065C234.015 19.964 235.488 20.6912 235.804 21.262C236.209 21.9924 236 23.4231 236.238 24.2301C236.398 24.7729 236.998 24.8972 237.084 25.5737C237.5 28.8515 236.824 32.7322 237.066 36.0711L236.938 38.17C237.132 41.5648 237.132 44.9638 237.262 48.3659C237.294 49.1988 237.576 49.6971 237.129 50.5476C236.709 51.3463 236.144 51.2935 235.417 51.1526V51.1536Z" fill="black"/>
<path d="M192.557 81.3664C192.843 80.9893 193.607 81.1364 194.038 81.0929C195.214 80.9737 196.088 81.1115 197.263 81.1302C197.856 81.1395 198.455 81.0773 199.048 81.0835C198.474 79.3898 198.099 77.6203 197.597 75.8986C197.482 75.5018 197.155 74.8906 197.088 74.5601C197.007 74.1592 197.1 73.7096 197.019 73.3066C196.821 72.3214 195.359 70.8804 197.236 70.3728C197.041 69.6093 196.968 68.8064 196.786 68.0408C196.526 66.9406 195.941 65.9088 196.228 64.7268C196.695 64.4139 197.297 64.4605 197.706 64.878C198.416 65.5991 199.062 69.8983 199.381 71.1808C199.937 73.4206 200.71 75.1444 201.521 77.2308C201.936 78.2999 202.347 80.0134 202.883 80.9313C203.122 81.3415 203.855 81.4285 204.008 82.0418C204.223 82.9068 203.596 83.3968 203.64 83.9117C203.7 84.6307 204.442 85.3009 204.602 85.9494C204.702 86.3524 204.613 86.7492 204.712 87.1522C204.842 87.6785 205.806 89.3754 206.142 89.8478C207.066 91.151 208.471 91.8617 206.851 93.6767C206.131 93.6642 205.546 93.9761 204.85 93.6632C203.652 93.1266 203.384 90.3357 202.818 89.1247C202.578 88.6098 202.204 88.4772 201.908 88.0638C201.184 87.0527 200.928 85.3465 200.285 84.2608C198.556 84.9259 196.735 85.0679 194.94 85.39C194.61 85.4491 194.253 85.649 193.971 85.6915C192.612 85.8977 191.989 84.438 193.009 83.372C192.418 83.0571 192.12 81.9392 192.557 81.3653V81.3664Z" fill="black"/>
<path d="M185.334 92.4636C184.779 91.8772 185.195 91.2391 185.31 90.6051C185.572 89.1537 185.888 87.7468 186.16 86.2799C186.687 83.4362 187.843 81.0867 188.881 78.4574C189.767 76.2135 191.192 73.3884 191.837 71.1839C191.988 70.6639 192.005 70.0226 192.205 69.543C192.527 68.767 193.186 68.8447 193.66 68.3153C194.106 67.817 194.104 67.0018 194.933 66.9779C195.665 66.9572 196.284 67.4555 196.099 68.362C195.867 69.5026 195.039 70.9798 194.793 72.1857C194.79 73.2227 194.14 74.039 193.818 75.0118C192.932 77.6897 192.397 80.7479 191.6 83.4839C191.103 85.187 189.843 87.5811 189.53 89.0998C189.26 90.4082 189.535 92.5092 188.168 93.1546C187.532 93.455 187.337 92.9422 186.921 92.8655C186.419 92.7733 185.806 92.9619 185.335 92.4646L185.334 92.4636Z" fill="black"/>
<path d="M153.59 70.6193C153.898 70.5209 154.466 70.7333 154.707 70.9695C154.967 71.2233 154.995 71.6211 155.166 71.8542C155.373 72.136 155.888 72.3411 155.993 72.8104C156.159 73.5521 155.699 74.5456 155.716 75.3951C155.726 75.8271 155.909 76.4476 155.932 76.89C156.062 79.3442 155.691 81.4316 155.596 83.8226C155.469 87.003 155.669 90.2259 155.624 93.3939C155.59 95.8242 154.472 96.9368 154.198 98.7425C154.102 99.3693 154.315 100.236 153.647 100.67C152.978 101.105 151.96 100.743 151.722 99.9328C151.605 99.5371 151.614 98.0733 151.624 97.576C151.685 94.7541 152.015 91.8969 152.122 89.0677C152.314 83.9791 152.851 78.9443 152.993 73.8619C153.016 73.0279 152.652 70.9166 153.589 70.6183L153.59 70.6193Z" fill="black"/>
<path d="M232.981 9.40962C233.188 9.5443 234.149 8.85228 234.366 8.67616C234.968 8.19134 235.57 7.08286 236.361 7.64953C236.451 7.71376 236.805 8.10846 236.834 8.20895C237.22 9.56916 235.124 10.227 235.351 11.2081C235.453 11.6525 237.667 11.1635 238.058 12.4875C238.142 12.7724 238.303 13.7679 238.299 14.0507C238.294 14.6226 237.724 15.2814 237.235 15.3322C236.594 15.3995 235.621 14.2258 235.086 14.5262C235.031 14.5573 234.309 15.5311 234.285 15.5964C234.171 15.9072 234.308 16.3205 234.262 16.6427C234.216 16.9649 233.583 17.5367 233.306 17.6383C231.221 18.4049 232.384 15.038 231.846 13.8539C230.892 13.8508 230.331 15.5176 229.498 15.5104C228.602 15.5031 227.576 14.2186 228.139 13.2396C228.637 12.3704 230.29 12.4377 230.918 11.6069C230.941 11.5188 230.566 10.2467 230.499 10.084C230.19 9.32986 229.65 9.11852 230.044 8.124C230.707 6.44781 232.465 8.62851 232.979 9.40859L232.981 9.40962Z" fill="black"/>
<path d="M216.925 79.7534C215.669 79.9512 217.249 81.0152 217.664 81.4834C219.737 83.8185 221.513 85.7671 223.73 87.9416C224.414 88.6129 225.182 89.7825 226.087 90.0353C226.321 90.1005 226.133 89.6219 226.333 89.5349C227.287 89.853 227.277 91.1458 227.563 92.0575C227.823 92.8862 228.359 93.5772 228.214 94.5137C228.02 95.7559 226.679 95.3912 226.11 94.6298C225.854 94.2879 225.521 93.2323 225.292 93.0468C225.028 92.8344 224.651 93.0893 224.319 92.8831C224.003 92.6873 223.499 91.4359 223.109 91.2587C222.745 91.093 221.976 91.3043 221.52 91.2204C220.364 91.008 219.062 88.5352 218.245 87.666C217.855 87.2517 216.96 86.8684 216.779 86.3493C216.47 85.4626 216.567 85.4491 215.954 84.6732C215.399 83.9708 214.702 83.3109 213.995 82.8229C213.871 82.9193 213.879 83.0187 213.869 83.1689C213.757 84.7332 214.09 87.3573 214.384 88.9278C214.443 89.2459 214.866 90.4248 214.825 90.4911C214.817 90.5046 214.643 90.5398 214.566 90.6475C214.437 90.8319 214.437 91.0743 214.324 91.2608C214.164 91.5281 213.804 91.7467 213.693 91.9311C213.417 92.3911 213.796 93.0624 213.203 93.5348C212.663 93.9647 211.679 93.7989 211.334 93.1142C211.174 92.7982 211.16 92.2792 210.988 91.9891C210.905 91.8503 210.752 91.8296 210.679 91.7187C210.051 90.7511 210.217 89.3194 210.162 88.1592C210.138 87.6474 210.177 86.8963 210.114 86.4685C210.051 86.0282 209.597 85.4481 209.451 84.9062C208.644 81.9134 208.457 75.2138 208.564 71.9982C208.584 71.3683 208.67 70.7416 208.893 70.1687C209.024 70.0081 209.833 69.976 210.028 70.0381C210.343 70.1386 210.236 70.6618 210.536 70.6058C210.587 69.716 210.532 68.1672 210.945 67.4037C211.066 67.181 211.446 67.0328 211.477 66.9655C211.628 66.6412 211.36 66.1098 211.811 65.627C213 64.3538 215.366 63.7809 216.948 63.8618C218.852 63.9602 220.043 64.8024 221.726 65.2966C222.343 65.4768 223.061 65.3898 223.607 65.8052C224.061 66.1502 225.385 68.2117 225.567 68.7857C225.635 69.0001 225.746 69.6642 225.73 69.8786C225.685 70.496 224.815 72.7234 224.571 73.4848C224.064 75.0708 223.845 76.2612 222.838 77.6203C221.878 78.9163 220.377 79.2841 219.209 80.261C219.01 80.4268 218.841 80.7842 218.611 80.8712C217.874 81.1519 216.855 80.8028 216.927 79.7554L216.925 79.7534ZM221.665 67.8833C221.535 67.7331 221.231 67.5715 221.037 67.5601C219.384 67.7083 217.723 67.4431 216.073 67.5746C215.186 67.6451 214.528 68.2076 213.791 67.1468C213.293 67.0484 213.281 68.2035 213.268 68.5888C213.193 70.8058 213.278 73.2931 213.345 75.4894C213.378 76.5699 213.33 77.6732 213.509 78.733C214.176 78.3569 214.733 78.3901 215.397 77.9311C217.322 76.603 219.811 74.3923 220.961 72.1546C221.423 71.2575 222.408 68.738 221.665 67.8823V67.8833Z" fill="black"/>
<path d="M217.5 21.7427C220.093 21.435 221.328 22.0287 223.7 22.6419C224.738 22.9103 225.903 22.8336 226.866 23.5536C227.494 24.0229 229.348 26.1673 229.468 26.994C229.57 27.6933 229.652 28.2102 229.772 28.8877C230.247 31.5688 229.958 34.6518 228.826 37.0801C228.146 38.5387 227.524 40.2491 226.679 41.541C225.928 42.6888 224.863 44.1899 224.029 45.2549C222.854 46.7539 221.376 47.8686 220.031 49.147C219.782 49.3832 219.553 49.8121 219.305 50.0068C218.905 50.3207 218.445 50.2037 218.108 50.4461C217.717 50.7279 217.586 51.5318 216.978 51.8353C216.72 51.9638 215.68 52.1709 215.403 52.1575C214.905 52.1336 214.203 51.3712 214.114 50.8252C214.026 50.2793 214.18 49.8245 214.164 49.3366C214.072 46.3934 213.505 43.2296 213.337 40.2584C213.12 36.4181 213.38 32.8461 213.6 29.0514C213.728 26.85 213.462 24.805 214.511 22.846C214.578 22.7207 214.955 22.3498 215.064 22.2845C215.363 22.1074 217.079 21.7925 217.501 21.7427H217.5ZM217.693 44.1008C217.825 44.134 217.897 44.0614 218.001 44.0014C219.48 43.1405 221.95 41.0965 223.332 39.9155C223.905 39.4266 226.216 36.9216 226.293 36.2493C226.273 33.993 226.646 30.7121 224.822 29.1985C223.844 28.3874 221.509 26.7081 220.394 26.417C220.055 26.3289 219.104 26.1093 218.866 26.4035C218.784 26.505 218.37 27.8197 218.297 28.0683C217.443 30.998 217.442 36.2524 217.854 39.3344C217.961 40.1331 218.399 41.6746 218.349 42.3386C218.294 43.0721 217.685 43.4129 217.692 44.0998L217.693 44.1008Z" fill="black"/>
<path d="M153.473 61.018C153.681 61.1527 154.642 60.4607 154.859 60.2846C155.461 59.7998 156.062 58.6913 156.854 59.2579C156.944 59.3222 157.297 59.7169 157.326 59.8174C157.713 61.1776 155.617 61.8354 155.843 62.8165C155.946 63.2609 158.16 62.7719 158.551 64.0959C158.635 64.3808 158.795 65.3763 158.792 65.6591C158.787 66.231 158.216 66.8899 157.728 66.9406C157.086 67.008 156.113 65.8342 155.579 66.1347C155.524 66.1657 154.802 67.1395 154.778 67.2048C154.663 67.5156 154.801 67.9289 154.755 68.2511C154.709 68.5733 154.076 69.1452 153.799 69.2467C151.713 70.0133 152.877 66.6464 152.339 65.4623C151.385 65.4592 150.824 67.1261 149.991 67.1188C149.095 67.1116 148.069 65.827 148.631 64.848C149.129 63.9788 150.783 64.0462 151.411 63.2153C151.434 63.1273 151.059 61.8551 150.992 61.6925C150.682 60.9383 150.143 60.7269 150.537 59.7324C151.2 58.0562 152.958 60.2369 153.472 61.017L153.473 61.018Z" fill="black"/>
<path d="M13.13 106.34C11.93 104.71 16.24 103.91 17.65 103.88C44.05 102.4 70.68 104.42 97.04 103.1C101.19 102.23 100.95 97.49 101 94.12C100.63 81.65 102.27 69.01 100.84 56.66C100.2 54.19 98.05 53.28 95.82 54.43C89.45 58.45 88.49 67.51 89.09 74.53C90.82 83.84 93.06 94.76 79.38 92.83C71.77 92.24 64.2 92.16 56.62 92.29C46.55 92.39 36.49 92.84 26.38 92.61C23.8 92.53 20.86 92.21 18.72 90.83C11.6 85.98 16.17 71.6 15.2 63.81C14.41 45.09 25.94 53.5 29.85 48.74C29.94 46.86 26.59 46.15 24.89 45.75C22.91 45.31 20.71 45.24 18.99 44.11C15.82 41.95 13.31 27.89 19.2 27.36C24.81 27.07 23.56 35.08 27.85 36.91C32.38 39.11 40.82 38.33 41.14 45.12C42.11 48.1 36.39 57.16 41.9 56.7C46.33 54.96 45.75 39.66 43.38 37.01C40.24 33.92 34.82 35.6 31.37 33.11C27.92 30.92 28.5 26.55 32.52 25.6C36.87 24.61 41.3 26.75 45.72 26.59C53.39 27.05 60.94 20.5 67.87 26.1C69.35 26.98 71.24 27.96 72.81 27.2C74.15 26.6 74.44 24.77 73.43 23.56C71.74 21.4 67.67 21.44 65.57 19.81C62.85 17.71 63.98 12.67 67.43 12.16C71.94 11.97 78.85 11.54 81.93 14.81C83.54 16.6 85.17 25.74 87.41 19.32C89.06 7.68 99.4 10.31 96 12.2C88.24 15.08 91.4 18.98 88.02 24.42C80.9 29.14 81.45 13.26 73.23 14.24C67.55 14.03 65.51 17.5 71.95 19.38C78.46 21.18 79.55 29.32 72.05 30.25C68.16 30.24 65.2 26.55 61.32 26.48C55.4 26.45 50.26 30.69 44.05 29.28C40.3 29.4 35.86 26.74 32.59 28.83C31.96 29.56 32.53 30.69 33.91 31.34C37.37 32.86 42.01 32.37 45.16 34.82C48.2 37.04 47.74 42.65 47.62 46.79C47.48 51.73 46.88 60.62 40.12 60.04C33.34 57.88 39.19 49.57 38.34 44.86C35.68 37.41 23.87 43.76 21.75 33.21C17.39 24.1 16.74 40.5 20.62 42.39C22.9 44.22 27.06 43.39 29.94 44.65C33.37 45.8 34.5 50.38 30.66 52C28.26 53.16 25.28 52.63 22.72 53.14C15.78 54.61 18.05 64.21 17.87 70.25C18.94 76.12 14.64 88.65 22.93 89.77C40.79 91.91 58.73 87.84 76.5 90.43C80.07 90.57 85.86 92.01 87.13 87.62C88.68 78.82 86.53 69.56 88.23 60.77C89.21 56.26 93 50.86 97.56 50.58C100.2 50.5 103.21 51.62 103.73 54.57C104.61 60.51 103.3 67.28 103.05 73.36C102.38 82.64 104.43 92.52 101.98 101.54C100.19 105.57 95.38 106.3 91.4 106.17C65.41 106.1 39.01 106.01 13.21 106.44L13.13 106.38V106.34Z" fill="black"/>
<path d="M103.31 14.95C103.14 21.38 102.7 27.84 102.61 34.29C102.64 42.07 102.13 45 94.36 47.83C88.2 50.48 84.36 55.64 82.85 62.43C82.29 64.83 82 67.47 80.89 69.68C78.71 73.99 75.02 73.11 72.53 69.75C69.58 66.39 67.09 62.36 63.19 60.14C61.55 59.25 59.51 60.47 60.4 62.42C62.01 65.36 65.47 67.1 67.36 69.93C70.47 74.19 71.96 76.81 77.45 77.26C79.11 77.55 80.96 77.95 82.08 79.18C84.24 81.42 83.19 86.12 80.02 86.92C76.04 87.79 71.23 86.6 67.46 85.07C61.7 82.47 61.59 73.14 54.78 71.83C51.87 71.15 48.37 71.95 46.07 73.83C44.8 74.87 44.73 76.07 46.19 76.57C48.95 77.27 52.11 76.08 54.68 77.41C59.3 79.77 58.91 84.28 53.97 86.11C52.53 86.67 51.01 86.81 49.49 86.81C41.98 86.56 34.34 87.48 26.99 85.94C22.74 85.1 20.5 79.77 24.45 77.21C26.32 76.19 29.21 76.42 31.6 76.19C36.09 75.83 32.85 73.12 30.68 72.13C28.05 70.71 24.99 70.04 23.23 67.55C21.23 64.61 22.28 58.83 25.97 57.94C31.11 56.93 33.75 63.06 38.22 64.29C43.06 65.95 49.18 63.37 50.44 58.2C51.88 52.08 51.38 45.69 52.02 39.47C52.23 37.37 52.72 35.2 53.97 33.46C56.88 28.58 65.92 29.51 64.79 36.13C64.21 39.33 61.23 41.97 60.96 44.93C60.67 46.42 61.59 48.25 62.93 47.72C64.59 47.02 65.51 44.59 66.4 43.02C69.05 37.57 73.7 34.17 78.92 31.3C81.48 29.92 85.09 28.54 87.41 31.01C89.35 33 89 36.13 86.77 37.7C85.43 38.77 83.78 39.54 82.28 40.4C78.46 42.49 75.42 45.39 73.64 49.32C72.89 50.83 71.86 55.46 74.64 55.04C76.29 54.27 77.12 51.77 78.05 50.2C80.23 45.77 84.49 43.31 88.68 40.97C92.52 38.98 93.55 34.73 93.35 30.71C93.45 26.14 93.47 21.54 94.88 17.21C96.69 13.33 97.19 17.55 96.89 19.54C96.53 24.05 96.31 28.58 96.16 33.15C96.19 38.01 93.75 41.44 89.44 43.52C85.42 45.74 81.9 48.3 79.8 52.37C78.59 54.68 77.63 57.83 74.9 58.66C72.62 59.36 70.22 57.97 69.7 55.64C69.24 53.84 69.72 51.82 70.39 50.09C72.25 45.51 75.19 41.77 79.22 39.1C80.82 38.02 82.52 37.08 84.11 35.98C84.91 35.36 86.59 34.28 85.7 33.53C85.3 33.3 84.42 33.29 83.34 33.46C78.36 34.29 73.05 37.69 70.34 41.61C68.73 43.86 68.04 46.68 66.27 48.82C63.74 52.19 58.9 51.86 58.69 47.1C57.91 43.98 65.4 32.88 59.12 33.74C50.27 37.21 56.62 55.38 50.9 62.59C47.71 67.31 41.1 68.89 36 66.4C32.84 65.29 29.15 59.59 25.81 61.6C24.11 63.39 25.73 66.4 27.53 67.56C30.85 69.86 37.73 69.64 37.69 75.01C37.53 80.41 31.5 79.21 27.82 79.46C23.54 80.1 25.59 82.8 28.48 83.29C29.87 83.6 31.33 83.75 32.76 83.84C37.93 84.07 43.18 84.12 48.36 84.06C50.25 84.01 52.81 83.8 54.26 82.66C55.22 81.86 54.72 80.7 53.14 80.21C50.52 79.3 46.86 80.24 44.44 78.34C38.2 72.06 53.87 63.27 61.9 73.99C63.52 76 64.66 78.38 66.51 80.19C69.11 82.68 73.29 84.61 76.92 84.5C79.39 84.52 81.35 81.99 78.67 80.42C76.88 79.45 74.53 79.59 72.6 78.94C68.82 77.82 66.6 73.6 63.74 70.77C60.98 67.56 54.39 62.22 58.4 57.88C67.67 51.42 76.82 80.96 80.07 63.33C84.65 42.54 97.98 48.11 99.9 38.51C101.06 28.66 100.73 18.64 101.19 8.73C101.21 4.17 103.2 4.14 103.34 9.63C103.36 11.36 103.34 13.08 103.31 14.81V15.01V14.95Z" fill="black"/>
<path d="M97.74 5.51C99.59 7.08 95.8 7.78 94.62 7.73C85.74 7.99 76.81 8.03 67.94 8.07C63.17 8.01 61.73 9.7 60.34 14.1C59.24 17.44 57.37 20.7 54.03 22.15C46.63 25.39 38.64 20.58 31 21.87C26.75 22.19 21.86 24.27 17.88 22.06C13.16 19.09 13.42 14.64 18.91 13.26C20.1 12.93 21.35 12.85 22.59 12.85C30.65 12.71 38.87 14.01 46.91 13.3C48.97 13.04 52.32 10.89 49.27 9.33C47.91 8.7 45.97 8.49 44.38 8.43C36.39 8.35 28.32 8.59 20.33 8.51C18.23 8.41 15.89 8.8 13.96 7.98C11.93 6.94 12.95 5.32 14.81 5.28C25.56 6.18 36.44 5.63 47.24 5.74C48.57 5.77 50 5.83 51.22 6.24C55.41 7.58 54.61 14.51 50.48 15.43C48.39 16.05 46.02 15.89 43.84 15.82C36.75 15.48 29.63 15.24 22.59 14.99C15.7 14.2 14.7 19.11 21.99 19.74C30.21 19.7 38.4 18.63 46.57 20.52C54.36 22 56.89 16.44 59.28 10.23C60.58 7.42 61.88 6.31 64.75 5.99C67.88 5.65 71.12 5.94 74.25 6.13C80.71 6.64 87.31 5.43 93.77 4.93C95.29 4.79 96.83 4.93 97.66 5.46L97.76 5.53L97.74 5.51Z" fill="black"/>
<path d="M2.34 95.56C4.8 71.15 1.45 46.18 3.58 21.8C4.7 18.39 10.21 18.67 11.68 21.67C12.31 22.77 12.55 23.99 12.71 25.31C14.11 43.46 12.14 61.71 12.45 79.89C12.2 85.01 14.16 93.99 8.81 96.68C8.34 96.71 8.25 96.15 8.5 95.2C9.83 91.68 10.14 87.96 9.89 84.19C9.01 66.39 9.56 48.59 10 30.78C10.38 20.1 4.78 18.29 5.37 30.45C5.2 52.9 5.41 75.41 5.05 97.85C4.84 99.37 4.04 101.28 2.86 100.17C2 98.93 2.23 97.29 2.31 95.76L2.33 95.56H2.34Z" fill="black"/>
<path d="M2.47 105.08C13.54 92.71 32.73 96.33 47.5 96.84C61.41 96.81 75.34 97.37 89.27 96.82C93.23 96.44 94.17 92.78 94.02 89.38C93.96 82.32 93.63 75.33 93.75 68.32C94.01 64.17 94.09 59.14 96.59 55.72C98.03 54.58 98.08 57.34 97.99 58.27C97.66 62.07 97.21 65.98 96.89 69.84C96.26 75.99 96.38 82.14 96.6 88.32C96.62 91.42 96.78 95.27 94.28 97.5C92.4 99.11 89.38 99.25 86.91 99.26C64 99.36 41.07 97.98 18.27 99.37C15.63 99.4 3.34 107.31 2.45 105.14L2.47 105.07V105.08Z" fill="black"/>
<path d="M9.07 5.2C10.05 6.05 10.74 8.06 10.94 9.49C11.04 11.7 9.58 14.34 7.64 15.49C2.52 18.07 1.92 9.11 2.25 5.89C2.55 4.68 5.29 12.73 6.56 12.73C7.79 12.81 7.93 4.54 8.93 5.11L9.06 5.2H9.07Z" fill="black"/>
</svg>
