<svg width="341" height="196" viewBox="0 0 341 196" fill="none" xmlns="http://www.w3.org/2000/svg">
<path d="M59.6898 106.36C59.8798 106.85 60.0898 107.34 60.3798 107.78C60.5598 108.05 60.7598 108.31 60.9698 108.56C61.2498 108.89 61.5798 109.18 62.0098 109.3C62.4398 109.42 62.9298 109.35 63.3198 109.12C63.6098 108.95 63.7898 108.71 63.9698 108.44C64.0898 108.25 64.2098 108.06 64.3298 107.86C64.5598 107.46 64.7698 107.05 64.9498 106.62C65.0598 106.45 65.1198 106.26 65.1298 106.06C65.1698 105.86 65.1698 105.66 65.0998 105.46C64.9998 105.11 64.7398 104.73 64.4098 104.56C64.0598 104.38 63.6398 104.28 63.2498 104.41C62.8998 104.52 62.4998 104.75 62.3498 105.1C62.1998 105.45 62.0398 105.77 61.8698 106.09C61.6998 106.41 61.5198 106.73 61.3098 107.01L61.5398 106.71C61.5398 106.71 61.5098 106.74 61.4898 106.76L61.7898 106.53L61.7598 106.55L62.1198 106.4C62.1198 106.4 62.0798 106.42 62.0498 106.42L62.4498 106.37H62.4098C62.5398 106.39 62.6798 106.4 62.8098 106.42H62.7698C62.8898 106.46 63.0098 106.51 63.1298 106.56C63.0998 106.55 63.0798 106.54 63.0598 106.52L63.3598 106.75C63.1998 106.62 63.0598 106.44 62.9298 106.28L63.1598 106.58C62.8798 106.22 62.6498 105.83 62.4698 105.41L62.6198 105.77C62.5898 105.7 62.5698 105.64 62.5398 105.57C62.4898 105.37 62.3998 105.2 62.2698 105.06C62.1598 104.9 62.0198 104.77 61.8498 104.67C61.5298 104.48 61.0498 104.4 60.6898 104.52C60.3298 104.64 59.9798 104.86 59.7898 105.21C59.5998 105.56 59.4998 105.99 59.6398 106.37L59.6898 106.36Z" fill="#EF5C1C"/>
<path d="M57.6899 51.9499C42.6099 51.9499 30.3799 64.1799 30.3799 79.2599C30.3799 91.5599 38.5199 101.96 49.6999 105.38C49.2099 103.64 50.1199 101.45 52.4599 101.45C55.0599 101.45 55.8999 104.16 54.9999 105.93C55.1299 106.07 55.2499 106.23 55.3499 106.42C55.3499 106.43 55.3599 106.45 55.3699 106.46C56.1299 106.53 56.9099 106.57 57.6899 106.57C62.2099 106.57 66.4599 105.47 70.2199 103.52C70.1699 103.3 70.1299 103.07 70.1299 102.83C70.0899 99.6099 72.0499 96.7599 73.7699 94.1799C76.1799 90.5799 78.3399 86.8499 80.4799 83.0899C80.6799 81.9499 80.7999 80.7699 80.8299 79.5299C80.8899 77.1699 83.1599 76.2599 84.8899 76.7899C83.6399 62.8599 71.9499 51.9399 57.6999 51.9399L57.6899 51.9499Z" fill="#EF5C1C"/>
<path d="M312.96 104.33H88.8501H312.97H312.96Z" fill="#FFA600" stroke="#EF5C1C" stroke-width="5.2" stroke-miterlimit="10"/>
<path d="M114.96 74.08H123.91V85.63C123.91 91.46 120.66 94.79 114.38 94.79C108.1 94.79 104.85 91.46 104.85 85.63V66.69C104.85 60.86 108.1 57.53 114.38 57.53C120.66 57.53 123.91 60.86 123.91 66.69V70.23H117.87V66.33C117.87 63.73 116.59 62.74 114.56 62.74C112.53 62.74 111.25 63.73 111.25 66.33V86C111.25 88.6 112.53 89.54 114.56 89.54C116.59 89.54 117.87 88.6 117.87 86V79.29H114.96V74.09V74.08Z" fill="black"/>
<path d="M141.86 94.37C141.51 93.43 141.28 92.86 141.28 89.9V84.18C141.28 80.8 140 79.55 137.1 79.55H134.89V94.38H128.5V57.96H138.14C144.76 57.96 147.61 60.72 147.61 66.34V69.2C147.61 72.95 146.27 75.34 143.43 76.54V76.64C146.62 77.84 147.67 80.54 147.67 84.34V89.96C147.67 91.73 147.73 93.03 148.37 94.38H141.86V94.37ZM134.88 63.15V74.34H137.38C139.76 74.34 141.21 73.4 141.21 70.49V66.9C141.21 64.3 140.22 63.15 137.96 63.15H134.88Z" fill="black"/>
<path d="M158.7 73.3H167.47V78.5H158.7V89.1699H169.74V94.37H152.31V57.95H169.74V63.15H158.7V73.3Z" fill="black"/>
<path d="M180.54 73.3H189.31V78.5H180.54V89.1699H191.58V94.37H174.15V57.95H191.58V63.15H180.54V73.3Z" fill="black"/>
<path d="M201.8 67.9899H201.68V94.37H195.93V57.95H203.95L210.4 79.75H210.52V57.95H216.21V94.37H209.65L201.81 67.9899H201.8Z" fill="black"/>
<path d="M221.25 57.95H227.64V89.1699H238.15V94.37H221.25V57.95Z" fill="black"/>
<path d="M262.09 94.37H255.64L254.54 87.76H246.7L245.6 94.37H239.73L246.24 57.95H255.59L262.1 94.37H262.09ZM247.51 82.82H253.67L250.65 64.4H250.53L247.51 82.82Z" fill="black"/>
<path d="M271.32 67.9899H271.2V94.37H265.45V57.95H273.47L279.92 79.75H280.04V57.95H285.73V94.37H279.17L271.33 67.9899H271.32Z" fill="black"/>
<path d="M290.78 57.95H300.89C307.28 57.95 310.42 61.1199 310.42 66.9499V85.37C310.42 91.2 307.28 94.37 300.89 94.37H290.78V57.95ZM297.17 63.15V89.1699H300.77C302.8 89.1699 304.02 88.2299 304.02 85.6299V66.69C304.02 64.09 302.8 63.15 300.77 63.15H297.17Z" fill="black"/>
<path d="M120.25 112.76C126.47 112.76 129.66 116.09 129.66 121.92V123.07H123.62V121.56C123.62 118.96 122.46 117.97 120.43 117.97C118.4 117.97 117.23 118.96 117.23 121.56C117.23 124.16 118.51 126.19 122.69 129.47C128.03 133.68 129.72 136.7 129.72 140.87C129.72 146.7 126.47 150.03 120.19 150.03C113.91 150.03 110.66 146.7 110.66 140.87V138.63H116.7V141.23C116.7 143.83 117.98 144.77 120.01 144.77C122.04 144.77 123.32 143.83 123.32 141.23C123.32 138.63 122.04 136.6 117.86 133.32C112.52 129.11 110.83 126.09 110.83 121.92C110.83 116.09 114.02 112.76 120.24 112.76H120.25Z" fill="black"/>
<path d="M140.23 128.53H149V133.73H140.23V144.4H151.27V149.6H133.84V113.18H151.27V118.38H140.23V128.53Z" fill="black"/>
<path d="M176.36 149.6H169.91L168.81 142.99H160.97L159.87 149.6H154L160.51 113.18H169.86L176.37 149.6H176.36ZM161.78 138.05H167.94L164.92 119.63H164.8L161.78 138.05Z" fill="black"/>
<path d="M197.85 112.76C204.07 112.76 207.26 116.09 207.26 121.92V123.07H201.22V121.56C201.22 118.96 200.06 117.97 198.03 117.97C196 117.97 194.83 118.96 194.83 121.56C194.83 124.16 196.11 126.19 200.29 129.47C205.63 133.68 207.32 136.7 207.32 140.87C207.32 146.7 204.07 150.03 197.79 150.03C191.51 150.03 188.26 146.7 188.26 140.87V138.63H194.3V141.23C194.3 143.83 195.58 144.77 197.61 144.77C199.64 144.77 200.92 143.83 200.92 141.23C200.92 138.63 199.64 136.6 195.46 133.32C190.12 129.11 188.43 126.09 188.43 121.92C188.43 116.09 191.62 112.76 197.84 112.76H197.85Z" fill="black"/>
<path d="M232.12 149.6H225.67L224.57 142.99H216.73L215.63 149.6H209.76L216.27 113.18H225.62L232.13 149.6H232.12ZM217.54 138.05H223.7L220.68 119.63H220.56L217.54 138.05Z" fill="black"/>
<path d="M241.94 129.36H250.19V134.56H241.94V149.6H235.55V113.18H252.45V118.38H241.94V129.36Z" fill="black"/>
<path d="M275.92 149.6H269.47L268.37 142.99H260.53L259.43 149.6H253.56L260.07 113.18H269.42L275.93 149.6H275.92ZM261.34 138.05H267.5L264.48 119.63H264.36L261.34 138.05Z" fill="black"/>
<path d="M292.7 149.6C292.35 148.66 292.12 148.09 292.12 145.13V139.41C292.12 136.03 290.84 134.78 287.94 134.78H285.73V149.61H279.34V113.19H288.98C295.6 113.19 298.45 115.95 298.45 121.57V124.43C298.45 128.18 297.11 130.57 294.27 131.77V131.87C297.46 133.07 298.51 135.77 298.51 139.57V145.19C298.51 146.96 298.57 148.26 299.21 149.61H292.7V149.6ZM285.73 118.38V129.57H288.23C290.61 129.57 292.06 128.63 292.06 125.72V122.13C292.06 119.53 291.07 118.38 288.81 118.38H285.73Z" fill="black"/>
<path d="M303.16 113.18H309.55V149.6H303.16V113.18Z" fill="black"/>
<path d="M86.71 75.4399C89.54 99.0399 91.48 122.7 95.18 146.2" stroke="black" stroke-width="5" stroke-miterlimit="10"/>
<path d="M81.6899 76.2C83.0599 73.46 84.4399 70.73 85.8099 67.99C86.1599 70.93 86.5099 73.87 86.8699 76.81" stroke="black" stroke-width="5" stroke-miterlimit="10"/>
<path d="M68.73 102.01C73.42 92.68 78.11 83.34 82.8 74.01" stroke="black" stroke-width="5" stroke-miterlimit="10"/>
<path d="M59.6299 109.33L62.4799 114.45C64.9599 109.51 67.4399 104.58 69.9199 99.6399" stroke="black" stroke-width="5" stroke-miterlimit="10"/>
<path d="M49.9702 100.6C50.6102 98.8699 51.2502 97.1299 51.8802 95.3999M51.8802 95.3999C51.1802 97.5499 53.8102 98.5799 51.8802 95.3999ZM51.8802 95.3999C53.1802 97.7299 54.4702 100.06 55.7702 102.38" stroke="black" stroke-width="5" stroke-miterlimit="10"/>
<path d="M32.8701 148.02C38.4201 132.08 44.2601 116.24 50.1201 100.41" stroke="black" stroke-width="5" stroke-miterlimit="10"/>
<path d="M54.4102 99.97L62.4802 114.45" stroke="black" stroke-width="5" stroke-miterlimit="10"/>
</svg>
